<svg id="visual" viewBox="0 0 900 675" width="900" height="675" xmlns="http://www.w3.org/2000/svg" xmlns:xlink="http://www.w3.org/1999/xlink" version="1.1"><path d="M275 0L281.5 18.8C288 37.7 301 75.3 303 112.8C305 150.3 296 187.7 269.8 225.2C243.7 262.7 200.3 300.3 181.8 337.8C163.3 375.3 169.7 412.7 180.5 450.2C191.3 487.7 206.7 525.3 226.3 562.8C246 600.3 270 637.7 282 656.3L294 675L0 675L0 656.3C0 637.7 0 600.3 0 562.8C0 525.3 0 487.7 0 450.2C0 412.7 0 375.3 0 337.8C0 300.3 0 262.7 0 225.2C0 187.7 0 150.3 0 112.8C0 75.3 0 37.7 0 18.8L0 0Z" fill="#8ED1FC" stroke-linecap="round" stroke-linejoin="miter"></path></svg>